<svg width="1023" height="316" viewBox="0 0 1023 316" fill="none" xmlns="http://www.w3.org/2000/svg">
<path fill-rule="evenodd" clip-rule="evenodd" d="M187.423 148.324L198.553 109.188H249.897C276.825 109.188 293.341 96.6214 300.881 70.411L304.831 56.0491C314.166 22.2987 298.727 1.47395 264.259 1.833L40.9314 2.19205L0 148.683L187.423 148.324ZM264.259 41.3282L255.641 72.9243H208.606L217.582 41.3282H264.259ZM323.86 147.965L337.504 123.55H401.055V147.965H443.064L442.705 1.47395L360.483 1.833L275.389 148.324L323.86 147.965ZM383.821 41.3282H401.055V88.0043H357.252L383.821 41.3282ZM616.843 54.972L612.893 68.2567C607.507 87.6452 597.095 99.4938 581.656 104.52L594.941 147.606H550.419L538.211 107.393H511.283L499.793 147.965H456.349L497.28 1.47395H576.629C610.739 1.11491 626.537 21.2215 616.843 54.972ZM576.629 40.6101H529.953L520.977 72.2062H568.012L576.629 40.6101ZM654.184 147.247L695.115 0.755859H651.67L610.739 147.247H654.184ZM338.94 227.674L387.771 169.149H444.141L403.21 315.64H359.765L383.462 231.982L343.249 279.735H315.243L299.804 234.495L277.184 315.64L89.7617 315.999L130.693 169.508L318.834 169.149L338.94 227.674ZM502.307 168.431L417.213 314.922H465.684L479.328 290.507H542.879V314.922H584.888L584.529 168.431H502.307ZM499.434 254.961L525.645 208.285H542.879V254.961H499.434ZM743.227 168.072L731.379 210.08H690.447L661.006 314.922H617.561L647.003 210.08H599.249L611.098 168.072H743.227ZM789.185 209.721H854.891L866.739 167.713H796.366C769.438 167.713 752.922 180.279 745.382 206.49L730.302 259.988C720.607 294.456 736.405 314.204 770.515 314.204H825.09L836.939 272.195H771.233L789.185 209.721ZM964.759 219.775L979.48 167.354H1022.92L981.994 313.845H938.549L953.27 261.424H903.721L889 313.845H845.556L886.487 167.354H929.932L915.211 219.775H964.759Z" fill="#F8FF13"/>
</svg>
